<?xml version="1.0" encoding="iso-8859-1"?>
<!-- Generator: Adobe Illustrator 19.0.0, SVG Export Plug-In . SVG Version: 6.00 Build 0)  -->
<svg version="1.1" id="Capa_1" xmlns="http://www.w3.org/2000/svg" xmlns:xlink="http://www.w3.org/1999/xlink" x="0px" y="0px"
	 viewBox="0 0 464 464" style="enable-background:new 0 0 464 464;" xml:space="preserve">
<path style="fill:#689CB0;" d="M48,120c-17.673,0-32,14.327-32,32v280h432V152c0-17.673-14.327-32-32-32H48z"/>
<path style="fill:#F7EAD0;" d="M48,152h368v224H48V152z"/>
<path style="fill:#EDDFC2;" d="M232,152h184v224H232V152z"/>
<g>
	<path style="fill:#689CB0;" d="M80,208c0,13.255,10.745,24,24,24l0,0h8v-48h-8C90.745,184,80,194.745,80,208z"/>
	<path style="fill:#689CB0;" d="M384,208c0-13.255-10.745-24-24-24h-8v48h8C373.255,232,384,221.255,384,208L384,208z"/>
</g>
<path style="fill:#5C8EA1;" d="M16,400h432v32H16V400z"/>
<path style="fill:#94D8E3;" d="M280,408c0,8.837-7.163,16-16,16h-64c-8.837,0-16-7.163-16-16H0v24c0,17.673,14.327,32,32,32h400
	c17.673,0,32-14.327,32-32v-24H280z"/>
<path style="fill:#FF7E6B;" d="M112,88h240v144H112V88z"/>
<path style="fill:#689CB0;" d="M232,168l120-80L232,0L112,88L232,168z"/>
<path style="fill:#5C8EA1;" d="M312,114.664V80H168v40l68,45.336L312,114.664z"/>
<path style="fill:#F4EFEF;" d="M160,88v32l72,48l72-48V88H160z"/>
<path style="fill:#ED7361;" d="M112,216h240v16H112V216z"/>
<g>
	<path style="fill:#756969;" d="M224,256h16v16h-16V256z"/>
	<path style="fill:#756969;" d="M224,288h16v16h-16V288z"/>
	<path style="fill:#756969;" d="M192,288h16v16h-16V288z"/>
	<path style="fill:#756969;" d="M256,288h16v16h-16V288z"/>
	<path style="fill:#756969;" d="M224,320h16v16h-16V320z"/>
	<path style="fill:#756969;" d="M192,320h16v16h-16V320z"/>
	<path style="fill:#756969;" d="M160,320h16v16h-16V320z"/>
	<path style="fill:#756969;" d="M256,320h16v16h-16V320z"/>
	<path style="fill:#756969;" d="M288,320h16v16h-16V320z"/>
</g>
<g>
</g>
<g>
</g>
<g>
</g>
<g>
</g>
<g>
</g>
<g>
</g>
<g>
</g>
<g>
</g>
<g>
</g>
<g>
</g>
<g>
</g>
<g>
</g>
<g>
</g>
<g>
</g>
<g>
</g>
</svg>
